<svg width="544" height="242" viewBox="0 0 544 242" fill="none" xmlns="http://www.w3.org/2000/svg">
<g filter="url(#filter0_b)">
<path d="M15.4402 22.55V57.5H53.5402V68.75H15.4402V104.75H58.0402V116H1.79024V11.3H58.0402V22.55H15.4402ZM111.395 45.05H94.1445V116H80.4945V45.05H69.8445V33.8H80.4945V27.95C80.4945 18.75 82.8445 12.05 87.5445 7.85C92.3445 3.54999 99.9945 1.39999 110.495 1.39999V12.8C104.495 12.8 100.245 14 97.7445 16.4C95.3445 18.7 94.1445 22.55 94.1445 27.95V33.8H111.395V45.05ZM133.61 20.45C131.01 20.45 128.81 19.55 127.01 17.75C125.21 15.95 124.31 13.75 124.31 11.15C124.31 8.54999 125.21 6.35 127.01 4.55C128.81 2.74999 131.01 1.84999 133.61 1.84999C136.11 1.84999 138.21 2.74999 139.91 4.55C141.71 6.35 142.61 8.54999 142.61 11.15C142.61 13.75 141.71 15.95 139.91 17.75C138.21 19.55 136.11 20.45 133.61 20.45ZM140.21 33.8V116H126.56V33.8H140.21ZM261.574 32.3C267.974 32.3 273.674 33.65 278.674 36.35C283.674 38.95 287.624 42.9 290.524 48.2C293.424 53.5 294.874 59.95 294.874 67.55V116H281.374V69.5C281.374 61.3 279.324 55.05 275.224 50.75C271.224 46.35 265.774 44.15 258.874 44.15C251.774 44.15 246.124 46.45 241.924 51.05C237.724 55.55 235.624 62.1 235.624 70.7V116H222.124V69.5C222.124 61.3 220.074 55.05 215.974 50.75C211.974 46.35 206.524 44.15 199.624 44.15C192.524 44.15 186.874 46.45 182.674 51.05C178.474 55.55 176.374 62.1 176.374 70.7V116H162.724V33.8H176.374V45.65C179.074 41.35 182.674 38.05 187.174 35.75C191.774 33.45 196.824 32.3 202.324 32.3C209.224 32.3 215.324 33.85 220.624 36.95C225.924 40.05 229.874 44.6 232.474 50.6C234.774 44.8 238.574 40.3 243.874 37.1C249.174 33.9 255.074 32.3 261.574 32.3ZM391.515 71.75C391.515 74.35 391.365 77.1 391.065 80H325.365C325.865 88.1 328.615 94.45 333.615 99.05C338.715 103.55 344.865 105.8 352.065 105.8C357.965 105.8 362.865 104.45 366.765 101.75C370.765 98.95 373.565 95.25 375.165 90.65H389.865C387.665 98.55 383.265 105 376.665 110C370.065 114.9 361.865 117.35 352.065 117.35C344.265 117.35 337.265 115.6 331.065 112.1C324.965 108.6 320.165 103.65 316.665 97.25C313.165 90.75 311.415 83.25 311.415 74.75C311.415 66.25 313.115 58.8 316.515 52.4C319.915 46 324.665 41.1 330.765 37.7C336.965 34.2 344.065 32.45 352.065 32.45C359.865 32.45 366.765 34.15 372.765 37.55C378.765 40.95 383.365 45.65 386.565 51.65C389.865 57.55 391.515 64.25 391.515 71.75ZM377.415 68.9C377.415 63.7 376.265 59.25 373.965 55.55C371.665 51.75 368.515 48.9 364.515 47C360.615 45 356.265 44 351.465 44C344.565 44 338.665 46.2 333.765 50.6C328.965 55 326.215 61.1 325.515 68.9H377.415ZM422.432 47.15C424.832 42.45 428.232 38.8 432.632 36.2C437.132 33.6 442.582 32.3 448.982 32.3V46.4H445.382C430.082 46.4 422.432 54.7 422.432 71.3V116H408.782V33.8H422.432V47.15ZM458.889 74.6C458.889 66.2 460.589 58.85 463.989 52.55C467.389 46.15 472.039 41.2 477.939 37.7C483.939 34.2 490.589 32.45 497.889 32.45C505.089 32.45 511.339 34 516.639 37.1C521.939 40.2 525.889 44.1 528.489 48.8V33.8H542.289V116H528.489V100.7C525.789 105.5 521.739 109.5 516.339 112.7C511.039 115.8 504.839 117.35 497.739 117.35C490.439 117.35 483.839 115.55 477.939 111.95C472.039 108.35 467.389 103.3 463.989 96.8C460.589 90.3 458.889 82.9 458.889 74.6ZM528.489 74.75C528.489 68.55 527.239 63.15 524.739 58.55C522.239 53.95 518.839 50.45 514.539 48.05C510.339 45.55 505.689 44.3 500.589 44.3C495.489 44.3 490.839 45.5 486.639 47.9C482.439 50.3 479.089 53.8 476.589 58.4C474.089 63 472.839 68.4 472.839 74.6C472.839 80.9 474.089 86.4 476.589 91.1C479.089 95.7 482.439 99.25 486.639 101.75C490.839 104.15 495.489 105.35 500.589 105.35C505.689 105.35 510.339 104.15 514.539 101.75C518.839 99.25 522.239 95.7 524.739 91.1C527.239 86.4 528.489 80.95 528.489 74.75ZM113.421 240.05C106.521 240.05 100.321 238.85 94.8207 236.45C89.4207 233.95 85.1707 230.55 82.0707 226.25C78.9707 221.85 77.3707 216.8 77.2707 211.1H91.8207C92.3207 216 94.3207 220.15 97.8207 223.55C101.421 226.85 106.621 228.5 113.421 228.5C119.921 228.5 125.021 226.9 128.721 223.7C132.521 220.4 134.421 216.2 134.421 211.1C134.421 207.1 133.321 203.85 131.121 201.35C128.921 198.85 126.171 196.95 122.871 195.65C119.571 194.35 115.121 192.95 109.521 191.45C102.621 189.65 97.0707 187.85 92.8707 186.05C88.7707 184.25 85.2207 181.45 82.2207 177.65C79.3207 173.75 77.8707 168.55 77.8707 162.05C77.8707 156.35 79.3207 151.3 82.2207 146.9C85.1207 142.5 89.1707 139.1 94.3707 136.7C99.6707 134.3 105.721 133.1 112.521 133.1C122.321 133.1 130.321 135.55 136.521 140.45C142.821 145.35 146.371 151.85 147.171 159.95H132.171C131.671 155.95 129.571 152.45 125.871 149.45C122.171 146.35 117.271 144.8 111.171 144.8C105.471 144.8 100.821 146.3 97.2207 149.3C93.6207 152.2 91.8207 156.3 91.8207 161.6C91.8207 165.4 92.8707 168.5 94.9707 170.9C97.1707 173.3 99.8207 175.15 102.921 176.45C106.121 177.65 110.571 179.05 116.271 180.65C123.171 182.55 128.721 184.45 132.921 186.35C137.121 188.15 140.721 191 143.721 194.9C146.721 198.7 148.221 203.9 148.221 210.5C148.221 215.6 146.871 220.4 144.171 224.9C141.471 229.4 137.471 233.05 132.171 235.85C126.871 238.65 120.621 240.05 113.421 240.05ZM203.408 240.35C195.708 240.35 188.708 238.6 182.408 235.1C176.208 231.6 171.308 226.65 167.708 220.25C164.208 213.75 162.458 206.25 162.458 197.75C162.458 189.35 164.258 181.95 167.858 175.55C171.558 169.05 176.558 164.1 182.858 160.7C189.158 157.2 196.208 155.45 204.008 155.45C211.808 155.45 218.858 157.2 225.158 160.7C231.458 164.1 236.408 169 240.008 175.4C243.708 181.8 245.558 189.25 245.558 197.75C245.558 206.25 243.658 213.75 239.858 220.25C236.158 226.65 231.108 231.6 224.708 235.1C218.308 238.6 211.208 240.35 203.408 240.35ZM203.408 228.35C208.308 228.35 212.908 227.2 217.208 224.9C221.508 222.6 224.958 219.15 227.558 214.55C230.258 209.95 231.608 204.35 231.608 197.75C231.608 191.15 230.308 185.55 227.708 180.95C225.108 176.35 221.708 172.95 217.508 170.75C213.308 168.45 208.758 167.3 203.858 167.3C198.858 167.3 194.258 168.45 190.058 170.75C185.958 172.95 182.658 176.35 180.158 180.95C177.658 185.55 176.408 191.15 176.408 197.75C176.408 204.45 177.608 210.1 180.008 214.7C182.508 219.3 185.808 222.75 189.908 225.05C194.008 227.25 198.508 228.35 203.408 228.35ZM257.655 197.75C257.655 189.25 259.355 181.85 262.755 175.55C266.155 169.15 270.855 164.2 276.855 160.7C282.955 157.2 289.905 155.45 297.705 155.45C307.805 155.45 316.105 157.9 322.605 162.8C329.205 167.7 333.555 174.5 335.655 183.2H320.955C319.555 178.2 316.805 174.25 312.705 171.35C308.705 168.45 303.705 167 297.705 167C289.905 167 283.605 169.7 278.805 175.1C274.005 180.4 271.605 187.95 271.605 197.75C271.605 207.65 274.005 215.3 278.805 220.7C283.605 226.1 289.905 228.8 297.705 228.8C303.705 228.8 308.705 227.4 312.705 224.6C316.705 221.8 319.455 217.8 320.955 212.6H335.655C333.455 221 329.055 227.75 322.455 232.85C315.855 237.85 307.605 240.35 297.705 240.35C289.905 240.35 282.955 238.6 276.855 235.1C270.855 231.6 266.155 226.65 262.755 220.25C259.355 213.85 257.655 206.35 257.655 197.75ZM399.018 239L366.768 202.7V239H353.118V128H366.768V193.25L398.418 156.8H417.468L378.768 197.75L417.618 239H399.018ZM458.666 240.35C452.366 240.35 446.716 239.3 441.716 237.2C436.716 235 432.766 232 429.866 228.2C426.966 224.3 425.366 219.85 425.066 214.85H439.166C439.566 218.95 441.466 222.3 444.866 224.9C448.366 227.5 452.916 228.8 458.516 228.8C463.716 228.8 467.816 227.65 470.816 225.35C473.816 223.05 475.316 220.15 475.316 216.65C475.316 213.05 473.716 210.4 470.516 208.7C467.316 206.9 462.366 205.15 455.666 203.45C449.566 201.85 444.566 200.25 440.666 198.65C436.866 196.95 433.566 194.5 430.766 191.3C428.066 188 426.716 183.7 426.716 178.4C426.716 174.2 427.966 170.35 430.466 166.85C432.966 163.35 436.516 160.6 441.116 158.6C445.716 156.5 450.966 155.45 456.866 155.45C465.966 155.45 473.316 157.75 478.916 162.35C484.516 166.95 487.516 173.25 487.916 181.25H474.266C473.966 176.95 472.216 173.5 469.016 170.9C465.916 168.3 461.716 167 456.416 167C451.516 167 447.616 168.05 444.716 170.15C441.816 172.25 440.366 175 440.366 178.4C440.366 181.1 441.216 183.35 442.916 185.15C444.716 186.85 446.916 188.25 449.516 189.35C452.216 190.35 455.916 191.5 460.616 192.8C466.516 194.4 471.316 196 475.016 197.6C478.716 199.1 481.866 201.4 484.466 204.5C487.166 207.6 488.566 211.65 488.666 216.65C488.666 221.15 487.416 225.2 484.916 228.8C482.416 232.4 478.866 235.25 474.266 237.35C469.766 239.35 464.566 240.35 458.666 240.35Z" fill="black"/>
<path d="M15.4402 22.55V21.55H14.4402V22.55H15.4402ZM15.4402 57.5H14.4402V58.5H15.4402V57.5ZM53.5402 57.5H54.5402V56.5H53.5402V57.5ZM53.5402 68.75V69.75H54.5402V68.75H53.5402ZM15.4402 68.75V67.75H14.4402V68.75H15.4402ZM15.4402 104.75H14.4402V105.75H15.4402V104.75ZM58.0402 104.75H59.0402V103.75H58.0402V104.75ZM58.0402 116V117H59.0402V116H58.0402ZM1.79024 116H0.790235V117H1.79024V116ZM1.79024 11.3V10.3H0.790235V11.3H1.79024ZM58.0402 11.3H59.0402V10.3H58.0402V11.3ZM58.0402 22.55V23.55H59.0402V22.55H58.0402ZM14.4402 22.55V57.5H16.4402V22.55H14.4402ZM15.4402 58.5H53.5402V56.5H15.4402V58.5ZM52.5402 57.5V68.75H54.5402V57.5H52.5402ZM53.5402 67.75H15.4402V69.75H53.5402V67.75ZM14.4402 68.75V104.75H16.4402V68.75H14.4402ZM15.4402 105.75H58.0402V103.75H15.4402V105.75ZM57.0402 104.75V116H59.0402V104.75H57.0402ZM58.0402 115H1.79024V117H58.0402V115ZM2.79024 116V11.3H0.790235V116H2.79024ZM1.79024 12.3H58.0402V10.3H1.79024V12.3ZM57.0402 11.3V22.55H59.0402V11.3H57.0402ZM58.0402 21.55H15.4402V23.55H58.0402V21.55ZM111.395 45.05V46.05H112.395V45.05H111.395ZM94.1445 45.05V44.05H93.1445V45.05H94.1445ZM94.1445 116V117H95.1445V116H94.1445ZM80.4945 116H79.4945V117H80.4945V116ZM80.4945 45.05H81.4945V44.05H80.4945V45.05ZM69.8445 45.05H68.8445V46.05H69.8445V45.05ZM69.8445 33.8V32.8H68.8445V33.8H69.8445ZM80.4945 33.8V34.8H81.4945V33.8H80.4945ZM87.5445 7.85L88.2109 8.59565L88.2118 8.59483L87.5445 7.85ZM110.495 1.39999H111.495V0.399991H110.495V1.39999ZM110.495 12.8V13.8H111.495V12.8H110.495ZM97.7445 16.4L98.4364 17.122L98.4371 17.1214L97.7445 16.4ZM94.1445 33.8H93.1445V34.8H94.1445V33.8ZM111.395 33.8H112.395V32.8H111.395V33.8ZM111.395 44.05H94.1445V46.05H111.395V44.05ZM93.1445 45.05V116H95.1445V45.05H93.1445ZM94.1445 115H80.4945V117H94.1445V115ZM81.4945 116V45.05H79.4945V116H81.4945ZM80.4945 44.05H69.8445V46.05H80.4945V44.05ZM70.8445 45.05V33.8H68.8445V45.05H70.8445ZM69.8445 34.8H80.4945V32.8H69.8445V34.8ZM81.4945 33.8V27.95H79.4945V33.8H81.4945ZM81.4945 27.95C81.4945 18.9017 83.8055 12.5324 88.2109 8.59565L86.8782 7.10434C81.8836 11.5676 79.4945 18.5983 79.4945 27.95H81.4945ZM88.2118 8.59483C92.743 4.53559 100.095 2.39999 110.495 2.39999V0.399991C99.8939 0.399991 91.946 2.5644 86.8773 7.10516L88.2118 8.59483ZM109.495 1.39999V12.8H111.495V1.39999H109.495ZM110.495 11.8C104.411 11.8 99.8344 13.0075 97.052 15.6786L98.4371 17.1214C100.655 14.9925 104.578 13.8 110.495 13.8V11.8ZM97.0526 15.678C94.3626 18.2559 93.1445 22.4412 93.1445 27.95H95.1445C95.1445 22.6588 96.3264 19.1441 98.4364 17.122L97.0526 15.678ZM93.1445 27.95V33.8H95.1445V27.95H93.1445ZM94.1445 34.8H111.395V32.8H94.1445V34.8ZM110.395 33.8V45.05H112.395V33.8H110.395ZM127.01 17.75L127.717 17.0429L127.717 17.0429L127.01 17.75ZM127.01 4.55L127.717 5.2571L127.717 5.2571L127.01 4.55ZM139.91 4.55L139.183 5.23662L139.193 5.247L139.203 5.2571L139.91 4.55ZM139.91 17.75L139.203 17.0429L139.193 17.053L139.183 17.0634L139.91 17.75ZM140.21 33.8H141.21V32.8H140.21V33.8ZM140.21 116V117H141.21V116H140.21ZM126.56 116H125.56V117H126.56V116ZM126.56 33.8V32.8H125.56V33.8H126.56ZM133.61 19.45C131.269 19.45 129.325 18.6509 127.717 17.0429L126.303 18.4571C128.295 20.4491 130.751 21.45 133.61 21.45V19.45ZM127.717 17.0429C126.109 15.4349 125.31 13.4911 125.31 11.15H123.31C123.31 14.0089 124.311 16.4651 126.303 18.4571L127.717 17.0429ZM125.31 11.15C125.31 8.80886 126.109 6.86512 127.717 5.2571L126.303 3.84289C124.311 5.83487 123.31 8.29113 123.31 11.15H125.31ZM127.717 5.2571C129.325 3.64908 131.269 2.84999 133.61 2.84999V0.849994C130.751 0.849994 128.295 1.85091 126.303 3.84289L127.717 5.2571ZM133.61 2.84999C135.838 2.84999 137.674 3.63884 139.183 5.23662L140.637 3.86337C138.746 1.86115 136.382 0.849994 133.61 0.849994V2.84999ZM139.203 5.2571C140.811 6.86512 141.61 8.80886 141.61 11.15H143.61C143.61 8.29113 142.609 5.83487 140.617 3.84289L139.203 5.2571ZM141.61 11.15C141.61 13.4911 140.811 15.4349 139.203 17.0429L140.617 18.4571C142.609 16.4651 143.61 14.0089 143.61 11.15H141.61ZM139.183 17.0634C137.674 18.6612 135.838 19.45 133.61 19.45V21.45C136.382 21.45 138.746 20.4388 140.637 18.4366L139.183 17.0634ZM139.21 33.8V116H141.21V33.8H139.21ZM140.21 115H126.56V117H140.21V115ZM127.56 116V33.8H125.56V116H127.56ZM126.56 34.8H140.21V32.8H126.56V34.8ZM278.674 36.35L278.199 37.2299L278.206 37.2336L278.212 37.2372L278.674 36.35ZM290.524 48.2L289.647 48.68L289.647 48.68L290.524 48.2ZM294.874 116V117H295.874V116H294.874ZM281.374 116H280.374V117H281.374V116ZM275.224 50.75L274.484 51.4227L274.492 51.4315L274.5 51.4401L275.224 50.75ZM241.924 51.05L242.655 51.7324L242.662 51.7243L241.924 51.05ZM235.624 116V117H236.624V116H235.624ZM222.124 116H221.124V117H222.124V116ZM215.974 50.75L215.234 51.4227L215.242 51.4315L215.25 51.4401L215.974 50.75ZM182.674 51.05L183.405 51.7324L183.412 51.7243L182.674 51.05ZM176.374 116V117H177.374V116H176.374ZM162.724 116H161.724V117H162.724V116ZM162.724 33.8V32.8H161.724V33.8H162.724ZM176.374 33.8H177.374V32.8H176.374V33.8ZM176.374 45.65H175.374V49.1231L177.221 46.1818L176.374 45.65ZM187.174 35.75L186.727 34.8555L186.719 34.8596L187.174 35.75ZM220.624 36.95L220.119 37.8132L220.119 37.8132L220.624 36.95ZM232.474 50.6L231.556 50.9976L232.515 53.2095L233.403 50.9686L232.474 50.6ZM243.874 37.1L244.391 37.9561L244.391 37.9561L243.874 37.1ZM261.574 33.3C267.829 33.3 273.362 34.6182 278.199 37.2299L279.149 35.4701C273.985 32.6818 268.118 31.3 261.574 31.3V33.3ZM278.212 37.2372C283.024 39.739 286.835 43.5408 289.647 48.68L291.401 47.72C288.413 42.2592 284.324 38.161 279.135 35.4628L278.212 37.2372ZM289.647 48.68C292.448 53.7996 293.874 60.0753 293.874 67.55H295.874C295.874 59.8247 294.4 53.2004 291.401 47.72L289.647 48.68ZM293.874 67.55V116H295.874V67.55H293.874ZM294.874 115H281.374V117H294.874V115ZM282.374 116V69.5H280.374V116H282.374ZM282.374 69.5C282.374 61.142 280.283 54.6069 275.948 50.0599L274.5 51.4401C278.365 55.4931 280.374 61.458 280.374 69.5H282.374ZM275.964 50.0773C271.743 45.4348 266.006 43.15 258.874 43.15V45.15C265.542 45.15 270.704 47.2652 274.484 51.4227L275.964 50.0773ZM258.874 43.15C251.536 43.15 245.602 45.5382 241.185 50.3757L242.662 51.7243C246.645 47.3618 252.011 45.15 258.874 45.15V43.15ZM241.193 50.3677C236.762 55.1155 234.624 61.9478 234.624 70.7H236.624C236.624 62.2522 238.686 55.9845 242.655 51.7323L241.193 50.3677ZM234.624 70.7V116H236.624V70.7H234.624ZM235.624 115H222.124V117H235.624V115ZM223.124 116V69.5H221.124V116H223.124ZM223.124 69.5C223.124 61.142 221.033 54.6069 216.698 50.0599L215.25 51.4401C219.115 55.4931 221.124 61.458 221.124 69.5H223.124ZM216.714 50.0773C212.493 45.4348 206.756 43.15 199.624 43.15V45.15C206.292 45.15 211.454 47.2652 215.234 51.4227L216.714 50.0773ZM199.624 43.15C192.286 43.15 186.352 45.5382 181.935 50.3757L183.412 51.7243C187.395 47.3618 192.761 45.15 199.624 45.15V43.15ZM181.943 50.3677C177.512 55.1155 175.374 61.9478 175.374 70.7H177.374C177.374 62.2522 179.436 55.9845 183.405 51.7323L181.943 50.3677ZM175.374 70.7V116H177.374V70.7H175.374ZM176.374 115H162.724V117H176.374V115ZM163.724 116V33.8H161.724V116H163.724ZM162.724 34.8H176.374V32.8H162.724V34.8ZM175.374 33.8V45.65H177.374V33.8H175.374ZM177.221 46.1818C179.825 42.0337 183.29 38.858 187.629 36.6404L186.719 34.8596C182.057 37.242 178.322 40.6663 175.527 45.1182L177.221 46.1818ZM187.621 36.6444C192.073 34.4186 196.968 33.3 202.324 33.3V31.3C196.68 31.3 191.475 32.4814 186.727 34.8556L187.621 36.6444ZM202.324 33.3C209.069 33.3 214.99 34.8135 220.119 37.8132L221.129 36.0868C215.657 32.8865 209.379 31.3 202.324 31.3V33.3ZM220.119 37.8132C225.223 40.7986 229.035 45.1793 231.556 50.9976L233.391 50.2024C230.713 44.0207 226.625 39.3014 221.129 36.0868L220.119 37.8132ZM233.403 50.9686C235.623 45.3701 239.279 41.0421 244.391 37.9561L243.357 36.2439C237.868 39.5579 233.924 44.2299 231.544 50.2314L233.403 50.9686ZM244.391 37.9561C249.527 34.855 255.247 33.3 261.574 33.3V31.3C254.901 31.3 248.821 32.945 243.357 36.2439L244.391 37.9561ZM391.065 80V81H391.967L392.06 80.1029L391.065 80ZM325.365 80V79H324.301L324.367 80.0616L325.365 80ZM333.615 99.05L332.938 99.7859L332.945 99.793L332.953 99.7998L333.615 99.05ZM366.765 101.75L367.334 102.572L367.338 102.569L366.765 101.75ZM375.165 90.65V89.65H374.454L374.22 90.3215L375.165 90.65ZM389.865 90.65L390.828 90.9183L391.181 89.65H389.865V90.65ZM376.665 110L377.261 110.803L377.269 110.797L376.665 110ZM331.065 112.1L330.567 112.967L330.573 112.971L331.065 112.1ZM316.665 97.25L315.784 97.7241L315.787 97.7298L316.665 97.25ZM316.515 52.4L317.398 52.8692L317.398 52.8692L316.515 52.4ZM330.765 37.7L331.252 38.5735L331.256 38.5708L330.765 37.7ZM372.765 37.55L372.272 38.42L372.272 38.42L372.765 37.55ZM386.565 51.65L385.682 52.1206L385.687 52.1294L385.692 52.1381L386.565 51.65ZM377.415 68.9V69.9H378.415V68.9H377.415ZM373.965 55.55L373.109 56.0678L373.116 56.0779L373.965 55.55ZM364.515 47L364.059 47.8898L364.072 47.8968L364.086 47.9033L364.515 47ZM333.765 50.6L333.097 49.8559L333.089 49.8628L333.765 50.6ZM325.515 68.9L324.519 68.8106L324.421 69.9H325.515V68.9ZM390.515 71.75C390.515 74.3118 390.367 77.0273 390.07 79.8971L392.06 80.1029C392.363 77.1727 392.515 74.3882 392.515 71.75H390.515ZM391.065 79H325.365V81H391.065V79ZM324.367 80.0616C324.879 88.366 327.712 94.9779 332.938 99.7859L334.292 98.3141C329.518 93.9221 326.85 87.834 326.363 79.9384L324.367 80.0616ZM332.953 99.7998C338.247 104.471 344.637 106.8 352.065 106.8V104.8C345.093 104.8 339.182 102.629 334.276 98.3002L332.953 99.7998ZM352.065 106.8C358.118 106.8 363.23 105.413 367.334 102.572L366.196 100.928C362.5 103.487 357.811 104.8 352.065 104.8V106.8ZM367.338 102.569C371.51 99.649 374.44 95.7776 376.109 90.9785L374.22 90.3215C372.69 94.7224 370.02 98.251 366.191 100.931L367.338 102.569ZM375.165 91.65H389.865V89.65H375.165V91.65ZM388.902 90.3817C386.761 98.0687 382.488 104.334 376.061 109.203L377.269 110.797C384.041 105.666 388.569 99.0313 390.828 90.9183L388.902 90.3817ZM376.069 109.197C369.672 113.946 361.693 116.35 352.065 116.35V118.35C362.037 118.35 370.457 115.854 377.261 110.803L376.069 109.197ZM352.065 116.35C344.42 116.35 337.592 114.637 331.556 111.229L330.573 112.971C336.937 116.563 344.109 118.35 352.065 118.35V116.35ZM331.563 111.233C325.629 107.828 320.957 103.015 317.542 96.7702L315.787 97.7298C319.372 104.285 324.301 109.372 330.567 112.967L331.563 111.233ZM317.545 96.7759C314.135 90.4423 312.415 83.1098 312.415 74.75H310.415C310.415 83.3902 312.195 91.0577 315.784 97.7241L317.545 96.7759ZM312.415 74.75C312.415 66.3853 314.087 59.1016 317.398 52.8692L315.632 51.9308C312.143 58.4984 310.415 66.1147 310.415 74.75H312.415ZM317.398 52.8692C320.711 46.6325 325.327 41.876 331.252 38.5735L330.278 36.8265C324.003 40.324 319.119 45.3675 315.632 51.9308L317.398 52.8692ZM331.256 38.5708C337.289 35.1656 344.215 33.45 352.065 33.45V31.45C343.914 31.45 336.641 33.2344 330.273 36.8292L331.256 38.5708ZM352.065 33.45C359.715 33.45 366.441 35.1159 372.272 38.42L373.258 36.68C367.089 33.1841 360.015 31.45 352.065 31.45V33.45ZM372.272 38.42C378.109 41.7279 382.573 46.2905 385.682 52.1206L387.447 51.1794C384.157 45.0095 379.42 40.1721 373.258 36.68L372.272 38.42ZM385.692 52.1381C388.9 57.8731 390.515 64.4018 390.515 71.75H392.515C392.515 64.0982 390.83 57.2269 387.438 51.1618L385.692 52.1381ZM378.415 68.9C378.415 63.5499 377.23 58.9089 374.814 55.0221L373.116 56.0779C375.299 59.5911 376.415 63.8501 376.415 68.9H378.415ZM374.82 55.0322C372.419 51.0653 369.121 48.081 364.944 46.0967L364.086 47.9033C367.908 49.719 370.91 52.4347 373.109 56.0678L374.82 55.0322ZM364.971 46.1102C360.917 44.0311 356.408 43 351.465 43V45C356.122 45 360.313 45.9689 364.059 47.8898L364.971 46.1102ZM351.465 43C344.331 43 338.19 45.2827 333.097 49.8559L334.433 51.344C339.14 47.1173 344.799 45 351.465 45V43ZM333.089 49.8628C328.07 54.4641 325.236 60.8154 324.519 68.8106L326.511 68.9894C327.193 61.3846 329.86 55.5359 334.441 51.3372L333.089 49.8628ZM325.515 69.9H377.415V67.9H325.515V69.9ZM422.432 47.15H421.432L423.323 47.6048L422.432 47.15ZM432.632 36.2L432.132 35.3341L432.124 35.3391L432.632 36.2ZM448.982 32.3H449.982V31.3H448.982V32.3ZM448.982 46.4V47.4H449.982V46.4H448.982ZM422.432 116V117H423.432V116H422.432ZM408.782 116H407.782V117H408.782V116ZM408.782 33.8V32.8H407.782V33.8H408.782ZM422.432 33.8H423.432V32.8H422.432V33.8ZM423.323 47.6048C425.64 43.0678 428.91 39.5612 433.141 37.0609L432.124 35.3391C427.555 38.0388 424.025 41.8322 421.542 46.6952L423.323 47.6048ZM433.133 37.0659C437.449 34.5719 442.718 33.3 448.982 33.3V31.3C442.447 31.3 436.816 32.6281 432.132 35.3341L433.133 37.0659ZM447.982 32.3V46.4H449.982V32.3H447.982ZM448.982 45.4H445.382V47.4H448.982V45.4ZM445.382 45.4C437.556 45.4 431.509 47.5265 427.435 51.9473C423.374 56.3526 421.432 62.8652 421.432 71.3H423.432C423.432 63.1348 425.316 57.1974 428.905 53.3027C432.481 49.4235 437.908 47.4 445.382 47.4V45.4ZM421.432 71.3V116H423.432V71.3H421.432ZM422.432 115H408.782V117H422.432V115ZM409.782 116V33.8H407.782V116H409.782ZM408.782 34.8H422.432V32.8H408.782V34.8ZM421.432 33.8V47.15H423.432V33.8H421.432ZM463.989 52.55L464.869 53.0249L464.873 53.0192L463.989 52.55ZM477.939 37.7L477.436 36.8362L477.429 36.8399L477.939 37.7ZM516.639 37.1L516.135 37.9632L516.135 37.9632L516.639 37.1ZM528.489 48.8L527.614 49.2841L529.489 48.8H528.489ZM528.489 33.8V32.8H527.489V33.8H528.489ZM542.289 33.8H543.289V32.8H542.289V33.8ZM542.289 116V117H543.289V116H542.289ZM528.489 116H527.489V117H528.489V116ZM528.489 100.7H529.489V96.8825L527.618 100.21L528.489 100.7ZM516.339 112.7L516.844 113.563L516.849 113.56L516.339 112.7ZM477.939 111.95L477.419 112.804L477.419 112.804L477.939 111.95ZM463.989 96.8L464.876 96.3365L464.876 96.3365L463.989 96.8ZM514.539 48.05L514.028 48.9093L514.04 48.9164L514.052 48.9232L514.539 48.05ZM486.639 47.9L486.143 47.0318L486.143 47.0318L486.639 47.9ZM476.589 58.4L477.468 58.8775L477.468 58.8775L476.589 58.4ZM476.589 91.1L475.707 91.5696L475.711 91.5775L476.589 91.1ZM486.639 101.75L486.128 102.609L486.136 102.614L486.143 102.618L486.639 101.75ZM514.539 101.75L515.036 102.618L515.042 102.615L514.539 101.75ZM524.739 91.1L525.618 91.5775L525.622 91.5696L524.739 91.1ZM459.889 74.6C459.889 66.337 461.561 59.1556 464.869 53.0249L463.109 52.0751C459.618 58.5444 457.889 66.063 457.889 74.6H459.889ZM464.873 53.0192C468.192 46.7717 472.717 41.9611 478.45 38.5601L477.429 36.8399C471.362 40.4389 466.587 45.5283 463.106 52.0808L464.873 53.0192ZM478.443 38.5638C484.282 35.1576 490.757 33.45 497.889 33.45V31.45C490.422 31.45 483.596 33.2424 477.436 36.8362L478.443 38.5638ZM497.889 33.45C504.943 33.45 511.012 34.9672 516.135 37.9632L517.144 36.2368C511.667 33.0328 505.236 31.45 497.889 31.45V33.45ZM516.135 37.9632C521.302 40.9856 525.113 44.7629 527.614 49.2841L529.364 48.3159C526.666 43.4371 522.577 39.4144 517.144 36.2368L516.135 37.9632ZM529.489 48.8V33.8H527.489V48.8H529.489ZM528.489 34.8H542.289V32.8H528.489V34.8ZM541.289 33.8V116H543.289V33.8H541.289ZM542.289 115H528.489V117H542.289V115ZM529.489 116V100.7H527.489V116H529.489ZM527.618 100.21C525.015 104.836 521.1 108.716 515.83 111.84L516.849 113.56C522.379 110.284 526.564 106.164 529.361 101.19L527.618 100.21ZM515.835 111.837C510.71 114.834 504.69 116.35 497.739 116.35V118.35C504.989 118.35 511.369 116.766 516.844 113.563L515.835 111.837ZM497.739 116.35C490.612 116.35 484.194 114.595 478.46 111.096L477.419 112.804C483.484 116.505 490.266 118.35 497.739 118.35V116.35ZM478.46 111.096C472.725 107.597 468.197 102.686 464.876 96.3365L463.103 97.2635C466.582 103.914 471.354 109.103 477.419 112.804L478.46 111.096ZM464.876 96.3365C461.56 89.9974 459.889 82.76 459.889 74.6H457.889C457.889 83.04 459.619 90.6026 463.103 97.2635L464.876 96.3365ZM529.489 74.75C529.489 68.4139 528.211 62.8439 525.618 58.0725L523.861 59.0275C526.268 63.4561 527.489 68.6861 527.489 74.75H529.489ZM525.618 58.0725C523.034 53.3172 519.503 49.6749 515.027 47.1768L514.052 48.9232C518.176 51.2251 521.445 54.5828 523.861 59.0275L525.618 58.0725ZM515.051 47.1907C510.689 44.5945 505.861 43.3 500.589 43.3V45.3C505.518 45.3 509.99 46.5055 514.028 48.9093L515.051 47.1907ZM500.589 43.3C495.325 43.3 490.503 44.5407 486.143 47.0318L487.136 48.7682C491.176 46.4593 495.654 45.3 500.589 45.3V43.3ZM486.143 47.0318C481.769 49.5315 478.292 53.1732 475.711 57.9225L477.468 58.8775C479.887 54.4268 483.11 51.0685 487.136 48.7682L486.143 47.0318ZM475.711 57.9225C473.118 62.6939 471.839 68.2639 471.839 74.6H473.839C473.839 68.5361 475.061 63.3061 477.468 58.8775L475.711 57.9225ZM471.839 74.6C471.839 81.0338 473.117 86.7007 475.707 91.5696L477.472 90.6304C475.062 86.0993 473.839 80.7662 473.839 74.6H471.839ZM475.711 91.5775C478.29 96.3238 481.762 100.011 486.128 102.609L487.151 100.891C483.116 98.4892 479.889 95.0762 477.468 90.6225L475.711 91.5775ZM486.143 102.618C490.503 105.109 495.325 106.35 500.589 106.35V104.35C495.654 104.35 491.176 103.191 487.136 100.882L486.143 102.618ZM500.589 106.35C505.854 106.35 510.676 105.109 515.036 102.618L514.043 100.882C510.003 103.191 505.525 104.35 500.589 104.35V106.35ZM515.042 102.615C519.509 100.017 523.035 96.3297 525.618 91.5775L523.861 90.6225C521.444 95.0703 518.17 98.4825 514.037 100.885L515.042 102.615ZM525.622 91.5696C528.211 86.7029 529.489 81.0867 529.489 74.75H527.489C527.489 80.8133 526.268 86.0971 523.857 90.6304L525.622 91.5696ZM94.8207 236.45L94.4006 237.357L94.4106 237.362L94.4208 237.367L94.8207 236.45ZM82.0707 226.25L81.2532 226.826L81.2595 226.835L82.0707 226.25ZM77.2707 211.1V210.1H76.253L76.2709 211.118L77.2707 211.1ZM91.8207 211.1L92.8155 210.998L92.7239 210.1H91.8207V211.1ZM97.8207 223.55L97.1239 224.267L97.1343 224.277L97.145 224.287L97.8207 223.55ZM128.721 223.7L129.375 224.456L129.376 224.455L128.721 223.7ZM131.121 201.35L130.37 202.011L130.37 202.011L131.121 201.35ZM122.871 195.65L122.504 196.58L122.504 196.58L122.871 195.65ZM109.521 191.45L109.779 190.484L109.773 190.482L109.521 191.45ZM92.8707 186.05L92.4687 186.966L92.4768 186.969L92.8707 186.05ZM82.2207 177.65L81.4182 178.247L81.4269 178.258L81.4358 178.27L82.2207 177.65ZM82.2207 146.9L83.0557 147.45L83.0557 147.45L82.2207 146.9ZM94.3707 136.7L93.9582 135.789L93.9516 135.792L94.3707 136.7ZM136.521 140.45L135.901 141.235L135.907 141.239L136.521 140.45ZM147.171 159.95V160.95H148.274L148.166 159.852L147.171 159.95ZM132.171 159.95L131.178 160.074L131.288 160.95H132.171V159.95ZM125.871 149.45L125.228 150.217L125.235 150.222L125.241 150.227L125.871 149.45ZM97.2207 149.3L97.848 150.079L97.8545 150.074L97.8609 150.068L97.2207 149.3ZM94.9707 170.9L94.2181 171.559L94.2257 171.567L94.2336 171.576L94.9707 170.9ZM102.921 176.45L102.534 177.372L102.552 177.38L102.57 177.386L102.921 176.45ZM116.271 180.65L116 181.613L116.005 181.614L116.271 180.65ZM132.921 186.35L132.509 187.261L132.518 187.265L132.527 187.269L132.921 186.35ZM143.721 194.9L142.928 195.51L142.936 195.52L143.721 194.9ZM144.171 224.9L145.028 225.414L145.028 225.414L144.171 224.9ZM132.171 235.85L131.704 234.966L132.171 235.85ZM113.421 239.05C106.638 239.05 100.577 237.871 95.2206 235.533L94.4208 237.367C100.064 239.829 106.404 241.05 113.421 241.05V239.05ZM95.2408 235.543C89.9773 233.106 85.8696 229.809 82.8819 225.665L81.2595 226.835C84.4718 231.291 88.8641 234.794 94.4006 237.357L95.2408 235.543ZM82.8882 225.674C79.9105 221.448 78.3673 216.595 78.2705 211.082L76.2709 211.118C76.3742 217.005 78.0309 222.252 81.2532 226.826L82.8882 225.674ZM77.2707 212.1H91.8207V210.1H77.2707V212.1ZM90.8259 211.202C91.3495 216.333 93.4535 220.702 97.1239 224.267L98.5175 222.833C95.1879 219.598 93.2919 215.667 92.8155 210.998L90.8259 211.202ZM97.145 224.287C100.991 227.813 106.469 229.5 113.421 229.5V227.5C106.772 227.5 101.85 225.887 98.4964 222.813L97.145 224.287ZM113.421 229.5C120.081 229.5 125.441 227.859 129.375 224.456L128.067 222.944C124.601 225.941 119.76 227.5 113.421 227.5V229.5ZM129.376 224.455C133.398 220.962 135.421 216.485 135.421 211.1H133.421C133.421 215.915 131.643 219.838 128.065 222.945L129.376 224.455ZM135.421 211.1C135.421 206.908 134.263 203.407 131.871 200.689L130.37 202.011C132.378 204.293 133.421 207.292 133.421 211.1H135.421ZM131.871 200.689C129.56 198.063 126.675 196.074 123.237 194.72L122.504 196.58C125.666 197.826 128.282 199.637 130.37 202.011L131.871 200.689ZM123.237 194.72C119.887 193.4 115.396 191.989 109.779 190.484L109.262 192.416C114.845 193.911 119.254 195.3 122.504 196.58L123.237 194.72ZM109.773 190.482C102.898 188.689 97.4008 186.903 93.2646 185.131L92.4768 186.969C96.7406 188.797 102.344 190.611 109.268 192.418L109.773 190.482ZM93.2727 185.134C89.3346 183.405 85.9126 180.713 83.0056 177.03L81.4358 178.27C84.5288 182.187 88.2068 185.095 92.4687 186.966L93.2727 185.134ZM83.0232 177.053C80.2886 173.376 78.8707 168.407 78.8707 162.05H76.8707C76.8707 168.693 78.3529 174.124 81.4182 178.247L83.0232 177.053ZM78.8707 162.05C78.8707 156.529 80.2722 151.674 83.0557 147.45L81.3857 146.35C78.3693 150.926 76.8707 156.171 76.8707 162.05H78.8707ZM83.0557 147.45C85.8442 143.219 89.7438 139.937 94.7898 137.608L93.9516 135.792C88.5976 138.263 84.3972 141.781 81.3857 146.35L83.0557 147.45ZM94.7832 137.611C99.9336 135.279 105.839 134.1 112.521 134.1V132.1C105.602 132.1 99.4079 133.321 93.9582 135.789L94.7832 137.611ZM112.521 134.1C122.151 134.1 129.916 136.505 135.901 141.235L137.141 139.665C130.725 134.595 122.49 132.1 112.521 132.1V134.1ZM135.907 141.239C141.986 145.967 145.402 152.215 146.176 160.048L148.166 159.852C147.34 151.485 143.656 144.733 137.135 139.661L135.907 141.239ZM147.171 158.95H132.171V160.95H147.171V158.95ZM133.163 159.826C132.625 155.524 130.362 151.804 126.501 148.673L125.241 150.227C128.779 153.096 130.716 156.376 131.178 160.074L133.163 159.826ZM126.513 148.683C122.59 145.396 117.442 143.8 111.171 143.8V145.8C117.099 145.8 121.752 147.304 125.228 150.217L126.513 148.683ZM111.171 143.8C105.289 143.8 100.397 145.352 96.5805 148.532L97.8609 150.068C101.245 147.248 105.652 145.8 111.171 145.8V143.8ZM96.5934 148.521C92.7214 151.64 90.8207 156.047 90.8207 161.6H92.8207C92.8207 156.553 94.52 152.76 97.848 150.079L96.5934 148.521ZM90.8207 161.6C90.8207 165.593 91.9292 168.943 94.2181 171.559L95.7233 170.241C93.8122 168.057 92.8207 165.207 92.8207 161.6H90.8207ZM94.2336 171.576C96.5344 174.086 99.3052 176.018 102.534 177.372L103.307 175.528C100.336 174.282 97.807 172.514 95.7079 170.224L94.2336 171.576ZM102.57 177.386C105.808 178.601 110.29 180.01 116 181.613L116.541 179.687C110.852 178.09 106.433 176.699 103.272 175.514L102.57 177.386ZM116.005 181.614C122.879 183.507 128.374 185.391 132.509 187.261L133.333 185.439C129.067 183.509 123.462 181.593 116.536 179.686L116.005 181.614ZM132.527 187.269C136.558 188.997 140.024 191.735 142.928 195.51L144.513 194.29C141.417 190.265 137.684 187.303 133.315 185.431L132.527 187.269ZM142.936 195.52C145.753 199.089 147.221 204.044 147.221 210.5H149.221C149.221 203.756 147.688 198.311 144.506 194.28L142.936 195.52ZM147.221 210.5C147.221 215.413 145.923 220.036 143.313 224.386L145.028 225.414C147.819 220.764 149.221 215.787 149.221 210.5H147.221ZM143.313 224.386C140.72 228.708 136.866 232.239 131.704 234.966L132.638 236.734C138.076 233.861 142.222 230.092 145.028 225.414L143.313 224.386ZM131.704 234.966C126.574 237.676 120.49 239.05 113.421 239.05V241.05C120.751 241.05 127.168 239.624 132.638 236.734L131.704 234.966ZM182.408 235.1L181.916 235.971L181.922 235.974L182.408 235.1ZM167.708 220.25L166.827 220.724L166.832 220.732L166.836 220.74L167.708 220.25ZM167.858 175.55L166.989 175.055L166.986 175.06L167.858 175.55ZM182.858 160.7L183.333 161.58L183.343 161.574L182.858 160.7ZM225.158 160.7L224.672 161.574L224.683 161.58L225.158 160.7ZM240.008 175.4L239.136 175.89L239.142 175.9L240.008 175.4ZM239.858 220.25L238.995 219.745L238.992 219.749L239.858 220.25ZM224.708 235.1L225.188 235.977L225.188 235.977L224.708 235.1ZM227.558 214.55L226.695 214.044L226.691 214.051L226.687 214.058L227.558 214.55ZM217.508 170.75L217.028 171.627L217.036 171.632L217.044 171.636L217.508 170.75ZM190.058 170.75L190.531 171.631L190.538 171.627L190.058 170.75ZM180.158 180.95L181.036 181.428L181.036 181.428L180.158 180.95ZM180.008 214.7L179.121 215.163L179.125 215.17L179.129 215.178L180.008 214.7ZM189.908 225.05L189.419 225.922L189.427 225.927L189.435 225.931L189.908 225.05ZM203.408 239.35C195.866 239.35 189.035 237.638 182.893 234.226L181.922 235.974C188.381 239.562 195.55 241.35 203.408 241.35V239.35ZM182.899 234.229C176.864 230.822 172.093 226.006 168.579 219.76L166.836 220.74C170.523 227.294 175.552 232.378 181.916 235.971L182.899 234.229ZM168.588 219.776C165.178 213.442 163.458 206.11 163.458 197.75H161.458C161.458 206.39 163.238 214.058 166.827 220.724L168.588 219.776ZM163.458 197.75C163.458 189.497 165.225 182.27 168.729 176.04L166.986 175.06C163.291 181.63 161.458 189.203 161.458 197.75H163.458ZM168.727 176.045C172.339 169.7 177.205 164.887 183.333 161.58L182.383 159.82C175.91 163.313 170.777 168.4 166.989 175.055L168.727 176.045ZM183.343 161.574C189.483 158.163 196.363 156.45 204.008 156.45V154.45C196.052 154.45 188.833 156.237 182.372 159.826L183.343 161.574ZM204.008 156.45C211.652 156.45 218.533 158.163 224.672 161.574L225.643 159.826C219.183 156.237 211.963 154.45 204.008 154.45V156.45ZM224.683 161.58C230.812 164.888 235.626 169.651 239.136 175.89L240.879 174.91C237.189 168.349 232.104 163.312 225.633 159.82L224.683 161.58ZM239.142 175.9C242.742 182.127 244.558 189.399 244.558 197.75H246.558C246.558 189.101 244.674 181.473 240.874 174.899L239.142 175.9ZM244.558 197.75C244.558 206.096 242.694 213.417 238.995 219.745L240.721 220.755C244.622 214.083 246.558 206.404 246.558 197.75H244.558ZM238.992 219.749C235.382 225.993 230.465 230.812 224.228 234.223L225.188 235.977C231.751 232.388 236.933 227.307 240.724 220.751L238.992 219.749ZM224.228 234.223C217.985 237.637 211.052 239.35 203.408 239.35V241.35C211.364 241.35 218.63 239.563 225.188 235.977L224.228 234.223ZM203.408 229.35C208.472 229.35 213.234 228.16 217.679 225.782L216.736 224.018C212.582 226.24 208.144 227.35 203.408 227.35V229.35ZM217.679 225.782C222.161 223.385 225.743 219.793 228.428 215.042L226.687 214.058C224.172 218.507 220.855 221.815 216.736 224.018L217.679 225.782ZM228.42 215.056C231.229 210.27 232.608 204.486 232.608 197.75H230.608C230.608 204.214 229.286 209.63 226.695 214.044L228.42 215.056ZM232.608 197.75C232.608 191.02 231.282 185.241 228.578 180.458L226.837 181.442C229.334 185.859 230.608 191.28 230.608 197.75H232.608ZM228.578 180.458C225.895 175.71 222.362 172.164 217.972 169.864L217.044 171.636C221.054 173.736 224.321 176.99 226.837 181.442L228.578 180.458ZM217.988 169.873C213.637 167.49 208.922 166.3 203.858 166.3V168.3C208.594 168.3 212.978 169.41 217.028 171.627L217.988 169.873ZM203.858 166.3C198.698 166.3 193.931 167.489 189.577 169.873L190.538 171.627C194.584 169.411 199.018 168.3 203.858 168.3V166.3ZM189.585 169.869C185.292 172.172 181.86 175.723 179.279 180.472L181.036 181.428C183.455 176.977 186.623 173.728 190.531 171.631L189.585 169.869ZM179.279 180.472C176.681 185.252 175.408 191.026 175.408 197.75H177.408C177.408 191.274 178.634 185.848 181.036 181.428L179.279 180.472ZM175.408 197.75C175.408 204.566 176.628 210.384 179.121 215.163L180.894 214.237C178.587 209.816 177.408 204.334 177.408 197.75H175.408ZM179.129 215.178C181.709 219.924 185.136 223.52 189.419 225.922L190.397 224.178C186.48 221.98 183.307 218.676 180.886 214.222L179.129 215.178ZM189.435 225.931C193.688 228.213 198.352 229.35 203.408 229.35V227.35C198.664 227.35 194.327 226.287 190.381 224.169L189.435 225.931ZM262.755 175.55L263.635 176.025L263.638 176.019L262.755 175.55ZM276.855 160.7L276.357 159.833L276.351 159.836L276.855 160.7ZM322.605 162.8L322.003 163.599L322.009 163.603L322.605 162.8ZM335.655 183.2V184.2H336.925L336.627 182.965L335.655 183.2ZM320.955 183.2L319.992 183.47L320.197 184.2H320.955V183.2ZM312.705 171.35L312.118 172.16L312.128 172.166L312.705 171.35ZM278.805 175.1L279.546 175.771L279.552 175.764L278.805 175.1ZM278.805 220.7L279.552 220.036L279.552 220.036L278.805 220.7ZM312.705 224.6L313.279 225.419L313.279 225.419L312.705 224.6ZM320.955 212.6V211.6H320.203L319.994 212.323L320.955 212.6ZM335.655 212.6L336.622 212.853L336.951 211.6H335.655V212.6ZM322.455 232.85L323.059 233.647L323.067 233.641L322.455 232.85ZM276.855 235.1L276.351 235.964L276.357 235.967L276.855 235.1ZM262.755 220.25L261.872 220.719L261.872 220.719L262.755 220.25ZM258.655 197.75C258.655 189.385 260.327 182.154 263.635 176.025L261.875 175.075C258.383 181.546 256.655 189.115 256.655 197.75H258.655ZM263.638 176.019C266.955 169.776 271.527 164.966 277.359 161.564L276.351 159.836C270.183 163.434 265.355 168.524 261.872 175.081L263.638 176.019ZM277.353 161.567C283.285 158.163 290.06 156.45 297.705 156.45V154.45C289.75 154.45 282.625 156.237 276.357 159.833L277.353 161.567ZM297.705 156.45C307.641 156.45 315.715 158.858 322.003 163.599L323.207 162.001C316.495 156.942 307.969 154.45 297.705 154.45V156.45ZM322.009 163.603C328.404 168.351 332.633 174.941 334.683 183.435L336.627 182.965C334.477 174.059 330.006 167.049 323.201 161.997L322.009 163.603ZM335.655 182.2H320.955V184.2H335.655V182.2ZM321.918 182.93C320.458 177.717 317.577 173.571 313.283 170.534L312.128 172.166C316.033 174.929 318.652 178.683 319.992 183.47L321.918 182.93ZM313.292 170.54C309.087 167.492 303.87 166 297.705 166V168C303.54 168 308.323 169.408 312.118 172.16L313.292 170.54ZM297.705 166C289.645 166 283.064 168.804 278.058 174.436L279.552 175.764C284.146 170.596 290.165 168 297.705 168V166ZM278.064 174.429C273.044 179.971 270.605 187.795 270.605 197.75H272.605C272.605 188.105 274.966 180.829 279.546 175.771L278.064 174.429ZM270.605 197.75C270.605 207.804 273.043 215.723 278.058 221.364L279.552 220.036C274.967 214.877 272.605 207.496 272.605 197.75H270.605ZM278.058 221.364C283.064 226.996 289.645 229.8 297.705 229.8V227.8C290.165 227.8 284.146 225.204 279.552 220.036L278.058 221.364ZM297.705 229.8C303.863 229.8 309.075 228.361 313.279 225.419L312.132 223.781C308.335 226.439 303.547 227.8 297.705 227.8V229.8ZM313.279 225.419C317.486 222.474 320.36 218.271 321.916 212.877L319.994 212.323C318.55 217.328 315.924 221.126 312.132 223.781L313.279 225.419ZM320.955 213.6H335.655V211.6H320.955V213.6ZM334.688 212.347C332.541 220.542 328.261 227.1 321.844 232.059L323.067 233.641C329.849 228.4 334.369 221.458 336.622 212.853L334.688 212.347ZM321.851 232.053C315.457 236.897 307.431 239.35 297.705 239.35V241.35C307.779 241.35 316.253 238.803 323.059 233.647L321.851 232.053ZM297.705 239.35C290.06 239.35 283.285 237.637 277.353 234.233L276.357 235.967C282.625 239.563 289.75 241.35 297.705 241.35V239.35ZM277.359 234.236C271.527 230.834 266.955 226.024 263.638 219.781L261.872 220.719C265.355 227.276 270.183 232.366 276.351 235.964L277.359 234.236ZM263.638 219.781C260.328 213.55 258.655 206.217 258.655 197.75H256.655C256.655 206.483 258.382 214.15 261.872 220.719L263.638 219.781ZM399.018 239L398.271 239.664L398.569 240H399.018V239ZM366.768 202.7L367.516 202.036L365.768 200.069V202.7H366.768ZM366.768 239V240H367.768V239H366.768ZM353.118 239H352.118V240H353.118V239ZM353.118 128V127H352.118V128H353.118ZM366.768 128H367.768V127H366.768V128ZM366.768 193.25H365.768V195.927L367.523 193.906L366.768 193.25ZM398.418 156.8V155.8H397.962L397.663 156.144L398.418 156.8ZM417.468 156.8L418.195 157.487L419.789 155.8H417.468V156.8ZM378.768 197.75L378.042 197.063L377.394 197.749L378.04 198.436L378.768 197.75ZM417.618 239V240H419.934L418.346 238.314L417.618 239ZM399.766 238.336L367.516 202.036L366.021 203.364L398.271 239.664L399.766 238.336ZM365.768 202.7V239H367.768V202.7H365.768ZM366.768 238H353.118V240H366.768V238ZM354.118 239V128H352.118V239H354.118ZM353.118 129H366.768V127H353.118V129ZM365.768 128V193.25H367.768V128H365.768ZM367.523 193.906L399.173 157.456L397.663 156.144L366.013 192.594L367.523 193.906ZM398.418 157.8H417.468V155.8H398.418V157.8ZM416.742 156.113L378.042 197.063L379.495 198.437L418.195 157.487L416.742 156.113ZM378.04 198.436L416.89 239.686L418.346 238.314L379.496 197.064L378.04 198.436ZM417.618 238H399.018V240H417.618V238ZM441.716 237.2L441.313 238.115L441.321 238.119L441.328 238.122L441.716 237.2ZM429.866 228.2L429.063 228.797L429.071 228.807L429.866 228.2ZM425.066 214.85V213.85H424.004L424.067 214.91L425.066 214.85ZM439.166 214.85L440.161 214.753L440.073 213.85H439.166V214.85ZM444.866 224.9L444.258 225.694L444.269 225.703L444.866 224.9ZM470.516 208.7L470.025 209.572L470.036 209.577L470.046 209.583L470.516 208.7ZM455.666 203.45L455.412 204.417L455.42 204.419L455.666 203.45ZM440.666 198.65L440.257 199.563L440.272 199.569L440.286 199.575L440.666 198.65ZM430.766 191.3L429.992 191.933L430.002 191.946L430.013 191.959L430.766 191.3ZM430.466 166.85L429.652 166.269L429.652 166.269L430.466 166.85ZM441.116 158.6L441.514 159.517L441.523 159.513L441.531 159.51L441.116 158.6ZM487.916 181.25V182.25H488.967L488.914 181.2L487.916 181.25ZM474.266 181.25L473.268 181.32L473.333 182.25H474.266V181.25ZM469.016 170.9L468.373 171.666L468.379 171.671L468.385 171.676L469.016 170.9ZM444.716 170.15L444.129 169.34L444.129 169.34L444.716 170.15ZM442.916 185.15L442.189 185.837L442.208 185.857L442.229 185.877L442.916 185.15ZM449.516 189.35L449.126 190.271L449.147 190.28L449.168 190.288L449.516 189.35ZM460.616 192.8L460.349 193.764L460.354 193.765L460.616 192.8ZM475.016 197.6L474.619 198.518L474.629 198.522L474.64 198.527L475.016 197.6ZM484.466 204.5L483.699 205.143L483.705 205.15L483.712 205.157L484.466 204.5ZM488.666 216.65H489.666V216.64L489.665 216.63L488.666 216.65ZM484.916 228.8L484.094 228.23L484.094 228.23L484.916 228.8ZM474.266 237.35L474.672 238.264L474.681 238.26L474.266 237.35ZM458.666 239.35C452.477 239.35 446.962 238.319 442.103 236.278L441.328 238.122C446.469 240.281 452.254 241.35 458.666 241.35V239.35ZM442.118 236.285C437.251 234.143 433.444 231.241 430.661 227.593L429.071 228.807C432.087 232.759 436.181 235.857 441.313 238.115L442.118 236.285ZM430.668 227.603C427.888 223.864 426.353 219.602 426.064 214.79L424.067 214.91C424.379 220.098 426.043 224.736 429.063 228.797L430.668 227.603ZM425.066 215.85H439.166V213.85H425.066V215.85ZM438.17 214.947C438.598 219.335 440.647 222.933 444.258 225.694L445.473 224.106C442.284 221.667 440.533 218.565 440.161 214.753L438.17 214.947ZM444.269 225.703C447.985 228.463 452.762 229.8 458.516 229.8V227.8C453.069 227.8 448.746 226.537 445.462 224.097L444.269 225.703ZM458.516 229.8C463.854 229.8 468.194 228.62 471.424 226.144L470.207 224.556C467.437 226.68 463.577 227.8 458.516 227.8V229.8ZM471.424 226.144C474.648 223.672 476.316 220.489 476.316 216.65H474.316C474.316 219.811 472.983 222.428 470.207 224.556L471.424 226.144ZM476.316 216.65C476.316 214.698 475.88 212.951 474.972 211.446C474.063 209.941 472.717 208.737 470.985 207.817L470.046 209.583C471.514 210.363 472.568 211.334 473.26 212.479C473.951 213.624 474.316 215.002 474.316 216.65H476.316ZM471.006 207.828C467.689 205.963 462.636 204.187 455.912 202.481L455.42 204.419C462.095 206.113 466.942 207.837 470.025 209.572L471.006 207.828ZM455.919 202.483C449.843 200.889 444.89 199.302 441.045 197.725L440.286 199.575C444.242 201.198 449.288 202.811 455.412 204.417L455.919 202.483ZM441.074 197.737C437.409 196.097 434.225 193.735 431.518 190.641L430.013 191.959C432.906 195.265 436.323 197.803 440.257 199.563L441.074 197.737ZM431.54 190.667C429.019 187.585 427.716 183.527 427.716 178.4H425.716C425.716 183.873 427.113 188.415 429.992 191.933L431.54 190.667ZM427.716 178.4C427.716 174.414 428.897 170.766 431.279 167.431L429.652 166.269C427.034 169.934 425.716 173.986 425.716 178.4H427.716ZM431.279 167.431C433.658 164.102 437.053 161.457 441.514 159.517L440.717 157.683C435.979 159.743 432.274 162.598 429.652 166.269L431.279 167.431ZM441.531 159.51C445.981 157.478 451.085 156.45 456.866 156.45V154.45C450.846 154.45 445.451 155.522 440.7 157.69L441.531 159.51ZM456.866 156.45C465.795 156.45 472.902 158.704 478.281 163.123L479.55 161.577C473.73 156.796 466.136 154.45 456.866 154.45V156.45ZM478.281 163.123C483.639 167.524 486.529 173.548 486.917 181.3L488.914 181.2C488.502 172.952 485.392 166.376 479.55 161.577L478.281 163.123ZM487.916 180.25H474.266V182.25H487.916V180.25ZM475.263 181.18C474.945 176.618 473.072 172.907 469.646 170.124L468.385 171.676C471.359 174.093 472.986 177.282 473.268 181.32L475.263 181.18ZM469.658 170.134C466.329 167.341 461.877 166 456.416 166V168C461.554 168 465.503 169.259 468.373 171.666L469.658 170.134ZM456.416 166C451.381 166 447.252 167.078 444.129 169.34L445.302 170.96C447.979 169.022 451.65 168 456.416 168V166ZM444.129 169.34C440.986 171.616 439.366 174.66 439.366 178.4H441.366C441.366 175.34 442.646 172.884 445.302 170.96L444.129 169.34ZM439.366 178.4C439.366 181.33 440.297 183.833 442.189 185.837L443.643 184.463C442.135 182.867 441.366 180.87 441.366 178.4H439.366ZM442.229 185.877C444.127 187.669 446.431 189.131 449.126 190.271L449.905 188.429C447.4 187.369 445.304 186.031 443.602 184.423L442.229 185.877ZM449.168 190.288C451.907 191.302 455.638 192.461 460.349 193.764L460.882 191.836C456.194 190.539 452.524 189.398 449.863 188.412L449.168 190.288ZM460.354 193.765C466.229 195.358 470.979 196.944 474.619 198.518L475.413 196.682C471.652 195.056 466.803 193.442 460.877 191.835L460.354 193.765ZM474.64 198.527C478.186 199.964 481.203 202.166 483.699 205.143L485.232 203.857C482.528 200.634 479.245 198.235 475.391 196.673L474.64 198.527ZM483.712 205.157C486.226 208.044 487.569 211.852 487.666 216.67L489.665 216.63C489.562 211.448 488.105 207.156 485.22 203.843L483.712 205.157ZM487.666 216.65C487.666 220.952 486.475 224.802 484.094 228.23L485.737 229.37C488.357 225.598 489.666 221.348 489.666 216.65H487.666ZM484.094 228.23C481.712 231.661 478.312 234.403 473.85 236.44L474.681 238.26C479.419 236.097 483.12 233.139 485.737 229.37L484.094 228.23ZM473.859 236.436C469.51 238.369 464.453 239.35 458.666 239.35V241.35C464.678 241.35 470.021 240.331 474.672 238.264L473.859 236.436Z" fill="black"/>
</g>
<defs>
<filter id="filter0_b" x="-3.20978" y="-3.60001" width="550.499" height="248.95" filterUnits="userSpaceOnUse" color-interpolation-filters="sRGB">
<feFlood flood-opacity="0" result="BackgroundImageFix"/>
<feGaussianBlur in="BackgroundImage" stdDeviation="2"/>
<feComposite in2="SourceAlpha" operator="in" result="effect1_backgroundBlur"/>
<feBlend mode="normal" in="SourceGraphic" in2="effect1_backgroundBlur" result="shape"/>
</filter>
</defs>
</svg>
